<svg xmlns="http://www.w3.org/2000/svg" viewBox="0 0 1500 500"><defs><radialGradient id="bg" cx=".5" cy=".5" r=".7"><stop offset="0" stop-color="#0F2027"/><stop offset="1" stop-color="#000814"/></radialGradient><pattern id="grid" x="0" y="0" width="60" height="52" patternUnits="userSpaceOnUse"><circle cx="0" cy="0" r="1.2" fill="#00E5FF" opacity=".18"/><circle cx="30" cy="26" r="1.2" fill="#00E5FF" opacity=".18"/><circle cx="60" cy="0" r="1.2" fill="#00E5FF" opacity=".18"/><circle cx="60" cy="52" r="1.2" fill="#00E5FF" opacity=".18"/><circle cx="0" cy="52" r="1.2" fill="#00E5FF" opacity=".18"/></pattern></defs><rect width="1500" height="500" fill="url(#bg)"/><rect width="1500" height="500" fill="url(#grid)"/><g stroke="#00E5FF" stroke-width="2" opacity=".35" fill="none"><line x1="450" y1="250" x2="600" y2="170"/><line x1="450" y1="250" x2="600" y2="330"/><line x1="600" y1="170" x2="750" y2="250"/><line x1="600" y1="330" x2="750" y2="250"/><line x1="750" y1="250" x2="900" y2="170"/><line x1="750" y1="250" x2="900" y2="330"/><line x1="900" y1="170" x2="1050" y2="250"/><line x1="900" y1="330" x2="1050" y2="250"/></g><g fill="#00E5FF"><circle cx="450" cy="250" r="6"/><circle cx="600" cy="170" r="6"/><circle cx="600" cy="330" r="6"/><circle cx="900" cy="170" r="6"/><circle cx="900" cy="330" r="6"/><circle cx="1050" cy="250" r="6"/></g><g transform="translate(750,250)"><polygon points="0,-90 78,-45 78,45 0,90 -78,45 -78,-45" fill="#0066FF" stroke="#00E5FF" stroke-width="4"/><text x="0" y="22" text-anchor="middle" font-family="Arial,sans-serif" font-weight="700" font-size="80" fill="#FFF">D</text></g><text x="750" y="430" text-anchor="middle" font-family="Arial,sans-serif" font-weight="600" font-size="36" fill="#FFF" letter-spacing="6">D E S N E T</text><text x="750" y="465" text-anchor="middle" font-family="Arial,sans-serif" font-weight="400" font-size="16" fill="#00E5FF" letter-spacing="3" opacity=".75">DECENTRALIZED  SOCIAL  NETWORK</text></svg>